<?xml version="1.0" encoding="utf-8"?>
<svg version="1.1" xmlns:xlink="http://www.w3.org/1999/xlink" width="173px" height="173px" xmlns="http://www.w3.org/2000/svg">
  <g transform="matrix(1 0 0 1 -316 -785 )">
    <path d="M 403.000141442831 785.501423744085  C 450.266490543275 785.770588009401  488.5 824.170336699041  488.5 871.5  C 488.5 918.996488485448  449.996488485448 957.5  402.5 957.5  C 396.154031912025 957.5  389.828074619075 956.797600675534  383.63762490616 955.405964079015  L 402.987179540617 871.612499312019  A 0.5 0.5 0 0 0 403 871.5 L 403.000141106175 785.501423742168  Z " fill-rule="nonzero" fill="#1890ff" stroke="none" />
    <path d="M 403.000141442831 785.501423744085  C 450.266490543275 785.770588009401  488.5 824.170336699041  488.5 871.5  C 488.5 918.996488485448  449.996488485448 957.5  402.5 957.5  C 396.154031912025 957.5  389.828074619075 956.797600675534  383.63762490616 955.405964079015  L 402.987179540617 871.612499312019  A 0.5 0.5 0 0 0 403 871.5 L 403.000141106175 785.501423742168  Z " stroke-width="1" stroke="#ffffff" fill="none" />
  </g>
</svg>